# xmcd CD database file
#
# Track frame offsets:
#	150
#	7214
#	50969
#	80520
#	96700
#	108129
#	115694
#	143240
#	157553
#	177053
#	197221
#	233787
#	262557
#	282057
#	306122
#	322676
#
# Disc length: 4333 seconds
#
# Revision: 0
# Processed by: cddbd v1.5.2PL0 Copyright (c) Steve Scherf et al.
# Submitted via: CDex 1.70beta2
#
DISCID=ca10eb10
DTITLE=Marcus Wyatt - Language 12
DYEAR=1900
DGENRE=Jazz
TTITLE0=Self Portrait
TTITLE1=Madam Bliss
TTITLE2=The Outcast Shelters The Wanderer
TTITLE3=Mr Baloi - Part One
TTITLE4=Mr Baloi - Part Two
TTITLE5=Gone (intro)
TTITLE6=Gone
TTITLE7=Remembrance
TTITLE8=The Madness Of King Dewey - Part One
TTITLE9=The Madness Of King Dewey - Part Two
TTITLE10=All This Time
TTITLE11=Two Short Stories From The Seven Steps - One
TTITLE12=Two Short Stories From The Seven Steps - Two
TTITLE13=The Invaders Plan - Part One
TTITLE14=The Invaders Plan - Part Two
TTITLE15=Out
EXTD=
EXTT0=
EXTT1=
EXTT2=
EXTT3=
EXTT4=
EXTT5=
EXTT6=
EXTT7=
EXTT8=
EXTT9=
EXTT10=
EXTT11=
EXTT12=
EXTT13=
EXTT14=
EXTT15=
PLAYORDER=
